<?xml version="1.0" encoding="utf-8"?>
<!-- Generator: Adobe Illustrator 21.1.0, SVG Export Plug-In . SVG Version: 6.00 Build 0)  -->
<svg version="1.1" id="Layer_1" xmlns="http://www.w3.org/2000/svg" xmlns:xlink="http://www.w3.org/1999/xlink" x="0px" y="0px"
	 viewBox="0 0 96 96" style="enable-background:new 0 0 96 96;" xml:space="preserve">
<style type="text/css">
	.st0{fill:#FFFFFF;}
	.st1{fill:#008EB7;}
	.st2{fill:#209C3A;}
	.st3{fill:#DA251D;}
	.st4{fill:#F7BD29;}
	.st5{fill:#FEFEFE;}
</style>
<g id="Layer_x0020_1">
	<path class="st0" d="M91,32.6H3.4c-0.1,0.3-0.2,0.5-0.3,0.8h88.1C91.2,33.1,91.1,32.8,91,32.6L91,32.6z M91.3,63H3.2
		c0.1,0.3,0.2,0.5,0.3,0.8H91C91.1,63.5,91.2,63.2,91.3,63L91.3,63z"/>
	<path class="st1" d="M3.4,32.6H91C84.7,14,67.5,0.7,47.2,0.7S9.7,14,3.4,32.6z"/>
	<path class="st2" d="M91,63.7H3.4c6.3,18.6,23.5,31.9,43.8,31.9C67.5,95.7,84.7,82.3,91,63.7z"/>
	<path class="st3" d="M3.2,63h88.1c0.2-0.6,0.4-1.3,0.6-1.9H2.6C2.8,61.7,3,62.4,3.2,63L3.2,63z M91.3,33.3H3.2
		C3,34,2.8,34.6,2.6,35.2h89.2C91.7,34.6,91.5,34,91.3,33.3L91.3,33.3z"/>
	<path class="st4" d="M2.6,61.1h89.2c1.1-4.1,1.7-8.4,1.7-12.9c0-4.5-0.6-8.8-1.7-12.9H2.6c-1.1,4.1-1.7,8.4-1.7,12.9
		C0.9,52.6,1.5,57,2.6,61.1L2.6,61.1z"/>
	<ellipse class="st0" cx="31.9" cy="18.6" rx="7.6" ry="8.4"/>
	<ellipse class="st1" cx="34.7" cy="18.6" rx="6.6" ry="7.2"/>
	<g id="star">
		<g id="cone">
			<polygon id="triangle" class="st0" points="42.9,18.6 41.9,22.2 43.5,22.8 			"/>
			<g>
				<polygon class="st0" points="42.9,18.6 44,22.2 42.4,22.8 				"/>
			</g>
		</g>
		<g>
			<g>
				<polygon class="st0" points="46.2,21.2 42.8,21.2 42.8,23.1 				"/>
				<g>
					<polygon class="st0" points="46.2,21.2 43.4,23.5 42.4,21.9 					"/>
				</g>
			</g>
		</g>
		<g>
			<g>
				<polygon class="st0" points="39.7,21.2 42.4,23.5 43.5,21.9 				"/>
				<g>
					<polygon class="st0" points="39.7,21.2 43.1,21.2 43.1,23.1 					"/>
				</g>
			</g>
		</g>
		<g>
			<g>
				<polygon class="st0" points="45,25.5 43.9,21.9 42.3,22.4 				"/>
				<g>
					<polygon class="st0" points="45,25.5 42.2,23.2 43.2,21.7 					"/>
				</g>
			</g>
		</g>
		<g>
			<g>
				<polygon class="st0" points="40.9,25.5 43.7,23.2 42.7,21.7 				"/>
				<g>
					<polygon class="st0" points="40.9,25.5 42,21.9 43.6,22.4 					"/>
				</g>
			</g>
		</g>
	</g>
	<g id="_2720369734672">
		<g>
			<g>
				<polygon class="st5" points="49.8,18.6 48.8,22.2 50.4,22.8 				"/>
				<g>
					<polygon class="st0" points="49.8,18.6 50.9,22.2 49.3,22.8 					"/>
				</g>
			</g>
			<g>
				<g>
					<polygon class="st0" points="53.1,21.2 49.7,21.2 49.7,23.1 					"/>
					<g>
						<polygon class="st0" points="53.1,21.2 50.3,23.5 49.3,21.9 						"/>
					</g>
				</g>
			</g>
			<g>
				<g>
					<polygon class="st0" points="46.6,21.2 49.3,23.5 50.4,21.9 					"/>
					<g>
						<polygon class="st0" points="46.6,21.2 50,21.2 50,23.1 						"/>
					</g>
				</g>
			</g>
			<g>
				<g>
					<polygon class="st0" points="51.9,25.5 50.8,21.9 49.2,22.4 					"/>
					<g>
						<polygon class="st0" points="51.9,25.5 49.1,23.2 50.1,21.7 						"/>
					</g>
				</g>
			</g>
			<g>
				<g>
					<polygon class="st0" points="47.8,25.5 50.6,23.2 49.6,21.7 					"/>
					<g>
						<polygon class="st0" points="47.8,25.5 48.9,21.9 50.5,22.4 						"/>
					</g>
				</g>
			</g>
		</g>
	</g>
	<g id="_2720369781008">
		<g>
			<g>
				<polygon class="st5" points="56.7,18.6 55.7,22.2 57.3,22.8 				"/>
				<g>
					<polygon class="st0" points="56.7,18.6 57.8,22.2 56.2,22.8 					"/>
				</g>
			</g>
			<g>
				<g>
					<polygon class="st0" points="60,21.2 56.6,21.2 56.6,23.1 					"/>
					<g>
						<polygon class="st0" points="60,21.2 57.2,23.5 56.2,21.9 						"/>
					</g>
				</g>
			</g>
			<g>
				<g>
					<polygon class="st0" points="53.5,21.2 56.2,23.5 57.3,21.9 					"/>
					<g>
						<polygon class="st0" points="53.5,21.2 56.9,21.2 56.9,23.1 						"/>
					</g>
				</g>
			</g>
			<g>
				<g>
					<polygon class="st0" points="58.8,25.5 57.7,21.9 56.1,22.4 					"/>
					<g>
						<polygon class="st0" points="58.8,25.5 56,23.2 57,21.7 						"/>
					</g>
				</g>
			</g>
			<g>
				<g>
					<polygon class="st0" points="54.7,25.5 57.5,23.2 56.5,21.7 					"/>
					<g>
						<polygon class="st0" points="54.7,25.5 55.8,21.9 57.4,22.4 						"/>
					</g>
				</g>
			</g>
		</g>
	</g>
	<g id="_2720369772080">
		<g>
			<g>
				<polygon class="st5" points="46.4,14 45.3,17.7 47,18.2 				"/>
				<g>
					<polygon class="st0" points="46.4,14 47.5,17.7 45.8,18.2 					"/>
				</g>
			</g>
			<g>
				<g>
					<polygon class="st0" points="49.7,16.7 46.2,16.7 46.2,18.6 					"/>
					<g>
						<polygon class="st0" points="49.7,16.7 46.9,18.9 45.9,17.4 						"/>
					</g>
				</g>
			</g>
			<g>
				<g>
					<polygon class="st0" points="43.1,16.7 45.9,18.9 46.9,17.4 					"/>
					<g>
						<polygon class="st0" points="43.1,16.7 46.6,16.7 46.6,18.6 						"/>
					</g>
				</g>
			</g>
			<g>
				<g>
					<polygon class="st0" points="48.4,20.9 47.3,17.3 45.7,17.9 					"/>
					<g>
						<polygon class="st0" points="48.4,20.9 45.6,18.7 46.6,17.1 						"/>
					</g>
				</g>
			</g>
			<g>
				<g>
					<polygon class="st0" points="44.4,20.9 47.1,18.7 46.1,17.1 					"/>
					<g>
						<polygon class="st0" points="44.4,20.9 45.4,17.3 47.1,17.9 						"/>
					</g>
				</g>
			</g>
		</g>
	</g>
	<g id="_2720369764432">
		<g>
			<g>
				<polygon class="st5" points="53.3,14 52.2,17.7 53.9,18.2 				"/>
				<g>
					<polygon class="st0" points="53.3,14 54.4,17.7 52.7,18.2 					"/>
				</g>
			</g>
			<g>
				<g>
					<polygon class="st0" points="56.6,16.7 53.1,16.7 53.1,18.6 					"/>
					<g>
						<polygon class="st0" points="56.6,16.7 53.8,18.9 52.8,17.4 						"/>
					</g>
				</g>
			</g>
			<g>
				<g>
					<polygon class="st0" points="50,16.7 52.8,18.9 53.8,17.4 					"/>
					<g>
						<polygon class="st0" points="50,16.7 53.5,16.7 53.5,18.6 						"/>
					</g>
				</g>
			</g>
			<g>
				<g>
					<polygon class="st0" points="55.3,20.9 54.2,17.3 52.6,17.9 					"/>
					<g>
						<polygon class="st0" points="55.3,20.9 52.5,18.7 53.5,17.1 						"/>
					</g>
				</g>
			</g>
			<g>
				<g>
					<polygon class="st0" points="51.3,20.9 54.1,18.7 53,17.1 					"/>
					<g>
						<polygon class="st0" points="51.3,20.9 52.3,17.3 54,17.9 						"/>
					</g>
				</g>
			</g>
		</g>
	</g>
</g>
</svg>
