<?xml version="1.0" encoding="utf-8"?>
<!-- Generator: Adobe Illustrator 21.1.0, SVG Export Plug-In . SVG Version: 6.00 Build 0)  -->
<svg version="1.1" id="Layer_1" xmlns="http://www.w3.org/2000/svg" xmlns:xlink="http://www.w3.org/1999/xlink" x="0px" y="0px"
	 viewBox="0 0 96 96" style="enable-background:new 0 0 96 96;" xml:space="preserve">
<style type="text/css">
	.st0{fill:#F0F0F0;}
	.st1{fill:#D80027;}
	.st2{fill:#6DA544;}
	.st3{fill:#338AF3;}
</style>
<path class="st0" d="M2.3,33.4C0.8,38,0,42.9,0,48c0,5.1,0.8,10,2.3,14.6L48,64.7l45.7-2.1C95.2,58,96,53.1,96,48
	c0-5.1-0.8-10-2.3-14.6L48,31.3L2.3,33.4z"/>
<g>
	<path class="st1" d="M93.7,33.4L48,31.3L2.3,33.4c-0.4,1.4-0.8,2.8-1.1,4.2h93.7C94.5,36.1,94.2,34.8,93.7,33.4z"/>
	<path class="st1" d="M1.1,58.4c0.3,1.4,0.7,2.8,1.1,4.2l0,0L48,64.7l45.7-2.1c0.4-1.4,0.8-2.8,1.1-4.2L1.1,58.4L1.1,58.4z"/>
</g>
<path class="st2" d="M48,96c21.4,0,39.6-14,45.7-33.4H2.3C8.4,82,26.6,96,48,96z"/>
<path class="st3" d="M48,0C26.6,0,8.4,14,2.3,33.4l91.5,0C87.6,14,69.4,0,48,0z"/>
<g>
	<path class="st0" d="M21.9,19.8c0-4.5,3.2-8.3,7.4-9.2c-0.6-0.1-1.3-0.2-2-0.2c-5.2,0-9.4,4.2-9.4,9.4s4.2,9.4,9.4,9.4
		c0.7,0,1.4-0.1,2-0.2C25.1,28.1,21.9,24.3,21.9,19.8z"/>
	<polygon class="st0" points="34.9,24.1 35.5,26.1 37.6,26.1 35.9,27.3 36.5,29.2 34.9,28 33.2,29.2 33.8,27.3 32.2,26.1 34.2,26.1 
			"/>
	<polygon class="st0" points="41.4,24.1 42.1,26.1 44.1,26.1 42.5,27.3 43.1,29.2 41.4,28 39.8,29.2 40.4,27.3 38.7,26.1 40.8,26.1 
			"/>
	<polygon class="st0" points="48,24.1 48.6,26.1 50.7,26.1 49,27.3 49.7,29.2 48,28 46.3,29.2 47,27.3 45.3,26.1 47.4,26.1 	"/>
	<polygon class="st0" points="54.6,24.1 55.2,26.1 57.3,26.1 55.6,27.3 56.2,29.2 54.6,28 52.9,29.2 53.5,27.3 51.9,26.1 53.9,26.1 
			"/>
	<polygon class="st0" points="61.1,24.1 61.8,26.1 63.8,26.1 62.2,27.3 62.8,29.2 61.1,28 59.5,29.2 60.1,27.3 58.4,26.1 60.5,26.1 
			"/>
	<polygon class="st0" points="41.4,17.3 42.1,19.2 44.1,19.2 42.5,20.4 43.1,22.4 41.4,21.2 39.8,22.4 40.4,20.4 38.7,19.2 
		40.8,19.2 	"/>
	<polygon class="st0" points="48,17.3 48.6,19.2 50.7,19.2 49,20.4 49.7,22.4 48,21.2 46.3,22.4 47,20.4 45.3,19.2 47.4,19.2 	"/>
	<polygon class="st0" points="54.6,17.3 55.2,19.2 57.3,19.2 55.6,20.4 56.2,22.4 54.6,21.2 52.9,22.4 53.5,20.4 51.9,19.2 
		53.9,19.2 	"/>
	<polygon class="st0" points="61.1,17.3 61.8,19.2 63.8,19.2 62.2,20.4 62.8,22.4 61.1,21.2 59.5,22.4 60.1,20.4 58.4,19.2 
		60.5,19.2 	"/>
	<polygon class="st0" points="48,10.4 48.6,12.4 50.7,12.4 49,13.6 49.7,15.6 48,14.3 46.3,15.6 47,13.6 45.3,12.4 47.4,12.4 	"/>
	<polygon class="st0" points="54.6,10.4 55.2,12.4 57.3,12.4 55.6,13.6 56.2,15.6 54.6,14.3 52.9,15.6 53.5,13.6 51.9,12.4 
		53.9,12.4 	"/>
	<polygon class="st0" points="61.1,10.4 61.8,12.4 63.8,12.4 62.2,13.6 62.8,15.6 61.1,14.3 59.5,15.6 60.1,13.6 58.4,12.4 
		60.5,12.4 	"/>
</g>
</svg>
