<?xml version="1.0" encoding="utf-8"?>
<!-- Generator: Adobe Illustrator 27.7.0, SVG Export Plug-In . SVG Version: 6.00 Build 0)  -->
<svg version="1.1" id="Layer_1" xmlns="http://www.w3.org/2000/svg" xmlns:xlink="http://www.w3.org/1999/xlink" x="0px" y="0px"
	 viewBox="0 0 1920 1080" style="enable-background:new 0 0 1920 1080;" xml:space="preserve">
<style type="text/css">
	.st0{fill:#323B4B;}
	.st1{display:none;}
	.st2{display:inline;fill:#FFFFFF;}
</style>
<g>
	<path class="st0" d="M894.63,502.52c-19.6,0-35.99,6.67-49.14,20c-13.16,13.34-19.74,29.9-19.74,49.67
		c0,19.25,6.62,35.54,19.87,48.88c13.25,13.34,29.67,20,49.27,20c10.95,0,21.46-2.34,31.53-7.02c10.07-4.68,18.19-11.17,24.37-19.47
		l-20.4-16.95c-8.3,10.77-20.23,16.16-35.76,16.16c-9.71,0-18.1-2.87-25.16-8.61c-7.07-5.74-11.39-13.82-12.98-24.24h104.38
		c0.17-2.47,0.26-5.83,0.26-10.07c-0.36-21.02-6.67-37.66-18.94-49.93C929.9,508.65,914.05,502.52,894.63,502.52z M918.34,536.29
		c6.27,5.39,10.64,13.11,13.11,23.18h-74.44c2.29-9.71,6.8-17.35,13.51-22.92c6.71-5.56,14.84-8.34,24.37-8.34
		C904.25,528.21,912.07,530.91,918.34,536.29z"/>
	<path class="st0" d="M1043.02,534.03c0.25,0,0.5,0,0.75,0.01c13.07,0,23.05,5.48,29.94,16.43l27.02-19.6
		c-6.53-8.83-14.79-15.85-24.77-21.06c-9.98-5.21-20.71-7.81-32.19-7.81c-19.25,0-35.72,6.85-49.4,20.53
		c-13.69,13.69-20.53,30.16-20.53,49.41c0,19.07,6.84,35.36,20.53,48.88c13.69,13.51,30.15,20.26,49.4,20.26
		c11.48,0,22.16-2.52,32.05-7.55c9.89-5.03,18.1-11.87,24.64-20.53l-26.49-19.6c-3.01,5.3-7.2,9.45-12.58,12.45
		c-5.09,2.84-10.61,4.25-16.56,4.25c-0.35,0-0.7,0-1.06-0.01c-10.77,0-19.74-3.58-26.89-10.73c-7.15-7.15-10.73-16.2-10.73-27.15
		c0-10.95,3.58-20.09,10.73-27.42C1023.87,537.61,1032.58,534.03,1043.02,534.03z"/>
	<path class="st0" d="M1170.13,607.68c-5.3,0-9.72-1.59-13.25-4.77c-3.53-3.18-5.3-8.04-5.3-14.57V438.94h-33.11v155.5
		c0,13.6,3.88,24.29,11.66,32.05c7.77,7.77,18.28,11.66,31.52,11.66c5.83,0,12.45-0.97,19.87-2.91l-3.44-28.61
		C1174.54,607.33,1171.89,607.68,1170.13,607.68z"/>
	<path class="st0" d="M1310.53,522.52c-13.77-13.68-30.29-20.53-49.54-20.53c-19.43,0-36.03,6.85-49.8,20.53
		c-13.77,13.69-20.66,30.16-20.66,49.41c0,19.07,6.89,35.36,20.66,48.88c13.78,13.51,30.37,20.26,49.8,20.26
		c19.42,0,35.98-6.71,49.67-20.13c13.69-13.42,20.53-29.76,20.53-49.01C1331.2,552.67,1324.31,536.21,1310.53,522.52z
		 M1224.7,572.19c0-10.95,3.48-20.09,10.46-27.42c6.81-7.16,15.19-10.73,25.12-10.73c0.24,0,0.47,0,0.71,0.01
		c0.23,0,0.46-0.01,0.7-0.01c9.76,0,18.05,3.58,24.87,10.73c6.97,7.33,10.46,16.47,10.46,27.42c0,10.78-3.49,19.83-10.46,27.15
		c-6.82,7.16-15.1,10.74-24.86,10.74c-0.23,0-0.47,0-0.71-0.01c-0.24,0-0.48,0.01-0.72,0.01c-9.93,0-18.3-3.58-25.11-10.74
		C1228.19,592.01,1224.7,582.96,1224.7,572.19z"/>
	<path class="st0" d="M703.2,517.4c-3.9-2.32-8.44-3.63-13.31-3.63c-14.52,0-26.28,11.77-26.28,26.26
		c0,14.13,11.13,25.63,25.09,26.24c0.39,0.04,0.8,0.04,1.19,0.04c7.02,0,13.41-2.75,18.11-7.27c0.31-0.29,0.62-0.58,0.88-0.88
		l44.04-44.04l24.5-24.5c-5.56-9.61-12.65-18.23-20.94-25.5c-17.8-15.65-41.15-25.15-66.63-25.15
		c-55.73,0-101.05,45.32-101.05,101.05c0,55.71,45.32,101.03,101.05,101.03c34.7,0,65.38-17.58,83.57-44.31l-23.86-23.84
		c-11.62,21.03-34.02,35.3-59.71,35.3c-37.6,0-68.19-30.58-68.19-68.17c0-37.62,30.6-68.19,68.19-68.19
		c16.47,0,31.56,5.85,43.35,15.59l-29.98,29.98L703.2,517.4z"/>
</g>
<g class="st1">
	<path class="st2" d="M1454.95,526.1c-7.27,0-13.35,2.47-18.23,7.42c-4.88,4.95-7.32,11.09-7.32,18.42c0,7.14,2.46,13.18,7.37,18.13
		c4.91,4.95,11,7.42,18.28,7.42c4.06,0,7.96-0.87,11.69-2.6c3.73-1.74,6.75-4.14,9.04-7.22l-7.57-6.29c-3.08,4-7.5,5.99-13.27,5.99
		c-3.6,0-6.71-1.06-9.33-3.19c-2.62-2.13-4.23-5.12-4.82-8.99h38.71c0.06-0.92,0.1-2.16,0.1-3.73c-0.13-7.79-2.47-13.97-7.03-18.52
		C1468.04,528.37,1462.16,526.1,1454.95,526.1z M1463.75,538.62c2.32,2,3.95,4.86,4.86,8.6H1441c0.85-3.6,2.52-6.44,5.01-8.5
		c2.49-2.06,5.5-3.09,9.04-3.09C1458.52,535.63,1461.42,536.63,1463.75,538.62z"/>
	<path class="st2" d="M1509.99,537.79c0.09,0,0.18,0,0.28,0c4.85,0,8.55,2.03,11.1,6.09l10.02-7.27c-2.42-3.27-5.49-5.88-9.19-7.81
		c-3.7-1.93-7.68-2.9-11.94-2.9c-7.14,0-13.25,2.54-18.33,7.61c-5.08,5.08-7.62,11.19-7.62,18.33c0,7.07,2.54,13.12,7.62,18.13
		c5.08,5.01,11.18,7.52,18.33,7.52c4.26,0,8.22-0.93,11.89-2.8c3.67-1.87,6.71-4.4,9.14-7.61l-9.83-7.27
		c-1.12,1.96-2.67,3.5-4.67,4.62c-1.89,1.05-3.93,1.58-6.14,1.58c-0.13,0-0.26,0-0.39-0.01c-4,0-7.32-1.33-9.97-3.98
		c-2.65-2.65-3.98-6.01-3.98-10.07c0-4.06,1.33-7.45,3.98-10.17C1502.89,539.11,1506.12,537.79,1509.99,537.79z"/>
	<path class="st2" d="M1557.14,565.11c-1.96,0-3.6-0.59-4.91-1.77c-1.31-1.18-1.96-2.98-1.96-5.4v-55.42h-12.28v57.68
		c0,5.04,1.44,9.01,4.32,11.89c2.88,2.88,6.78,4.32,11.69,4.32c2.16,0,4.62-0.36,7.37-1.08l-1.28-10.61
		C1558.78,564.98,1557.8,565.11,1557.14,565.11z"/>
	<path class="st2" d="M1609.22,533.51c-5.11-5.08-11.24-7.61-18.38-7.61c-7.21,0-13.36,2.54-18.47,7.61
		c-5.11,5.08-7.66,11.19-7.66,18.33c0,7.07,2.55,13.12,7.66,18.13c5.11,5.01,11.27,7.52,18.47,7.52c7.21,0,13.35-2.49,18.42-7.47
		c5.08-4.98,7.62-11.04,7.62-18.18C1616.88,544.7,1614.33,538.59,1609.22,533.51z M1577.38,551.94c0-4.06,1.29-7.45,3.88-10.17
		c2.53-2.65,5.63-3.98,9.32-3.98c0.09,0,0.18,0,0.26,0c0.09,0,0.17,0,0.26,0c3.62,0,6.7,1.33,9.22,3.98
		c2.59,2.72,3.88,6.11,3.88,10.17c0,4-1.29,7.35-3.88,10.07c-2.53,2.65-5.6,3.98-9.22,3.98c-0.09,0-0.17,0-0.26,0
		c-0.09,0-0.18,0-0.27,0c-3.68,0-6.79-1.33-9.31-3.98C1578.68,559.29,1577.38,555.94,1577.38,551.94z"/>
	<path class="st2" d="M1383.95,531.62c-1.45-0.86-3.13-1.35-4.94-1.35c-5.38,0-9.75,4.36-9.75,9.74c0,5.24,4.13,9.51,9.31,9.73
		c0.14,0.02,0.3,0.02,0.44,0.02c2.6,0,4.97-1.02,6.72-2.7c0.11-0.11,0.23-0.21,0.33-0.33l16.34-16.34l9.09-9.09
		c-2.06-3.56-4.69-6.76-7.77-9.46c-6.6-5.8-15.26-9.33-24.71-9.33c-20.67,0-37.48,16.81-37.48,37.48
		c0,20.66,16.81,37.47,37.48,37.47c12.87,0,24.25-6.52,31-16.44l-8.85-8.84c-4.31,7.8-12.62,13.09-22.15,13.09
		c-13.95,0-25.29-11.34-25.29-25.29c0-13.95,11.35-25.29,25.29-25.29c6.11,0,11.71,2.17,16.08,5.78L1383.95,531.62L1383.95,531.62z"
		/>
</g>
</svg>
